<?xml version="1.0" encoding="UTF-8" standalone="no"?>
<svg
   xmlns:dc="http://purl.org/dc/elements/1.1/"
   xmlns:cc="http://creativecommons.org/ns#"
   xmlns:rdf="http://www.w3.org/1999/02/22-rdf-syntax-ns#"
   xmlns:svg="http://www.w3.org/2000/svg"
   xmlns="http://www.w3.org/2000/svg"
   xmlns:sodipodi="http://sodipodi.sourceforge.net/DTD/sodipodi-0.dtd"
   xmlns:inkscape="http://www.inkscape.org/namespaces/inkscape"
   width="48.224815mm"
   height="47.997253mm"
   viewBox="0 0 48.224815 47.997253"
   version="1.1"
   id="svg414"
   inkscape:version="1.0.1 (3bc2e813f5, 2020-09-07)"
   sodipodi:docname="test.svg"
   inkscape:export-filename="C:\Users\serap\Desktop\logo.png"
   inkscape:export-xdpi="96"
   inkscape:export-ydpi="96">
  <defs
     id="defs408">
    <clipPath
       clipPathUnits="userSpaceOnUse"
       id="clipPath148">
      <path
         d="M 0,425.197 H 425.197 V 0 H 0 Z"
         id="path146" />
    </clipPath>
    <clipPath
       clipPathUnits="userSpaceOnUse"
       id="clipPath276">
      <path
         d="M 0,425.197 H 425.197 V 0 H 0 Z"
         id="path274" />
    </clipPath>
  </defs>
  <sodipodi:namedview
     id="base"
     pagecolor="#ffffff"
     bordercolor="#666666"
     borderopacity="1.0"
     inkscape:pageopacity="0.0"
     inkscape:pageshadow="2"
     inkscape:zoom="7.919596"
     inkscape:cx="89.428736"
     inkscape:cy="61.53918"
     inkscape:document-units="mm"
     inkscape:current-layer="layer1"
     inkscape:document-rotation="0"
     showgrid="false"
     inkscape:window-width="3440"
     inkscape:window-height="1377"
     inkscape:window-x="1432"
     inkscape:window-y="559"
     inkscape:window-maximized="1" />
  <metadata
     id="metadata411">
    <rdf:RDF>
      <cc:Work
         rdf:about="">
        <dc:format>image/svg+xml</dc:format>
        <dc:type
           rdf:resource="http://purl.org/dc/dcmitype/StillImage" />
        <dc:title />
      </cc:Work>
    </rdf:RDF>
  </metadata>
  <g
     inkscape:label="Layer 1"
     inkscape:groupmode="layer"
     id="layer1"
     transform="translate(-75.673309,-100.73352)">
    <g
       id="g142"
       transform="matrix(0.35277777,0,0,-0.35277777,-10.750401,160.65332)"
       inkscape:export-xdpi="96"
       inkscape:export-ydpi="96">
      <g
         id="g144"
         clip-path="url(#clipPath148)">
        <g
           id="g150"
           transform="translate(368.1686,111.5101)">
          <path
             d="m 0,0 c -0.55,-3.57 -1.62,-7.71 -3.5,-12.36 -9.8,-1.071 -18.87,-4.571 -26.6,-9.87 -5.39,-3.701 -10.129,-8.28 -14.009,-13.52 -0.271,0.47 -0.54,0.939 -0.83,1.41 0,0.01 0,0.029 0.009,0.04 0.1,0.68 0.21,1.35 0.33,2.029 0.121,0.67 0.25,1.34 0.4,2 0.14,0.621 0.28,1.241 0.44,1.861 0.02,0.09 0.04,0.189 0.071,0.28 0.159,0.62 0.319,1.23 0.5,1.83 0.189,0.659 0.389,1.3 0.599,1.949 0.2,0.621 0.42,1.241 0.64,1.861 0.011,0.03 0.02,0.059 0.03,0.09 0.231,0.62 0.47,1.24 0.72,1.85 0.221,0.55 0.45,1.1 0.69,1.64 0.3,0.689 0.611,1.37 0.941,2.04 0.239,0.5 0.479,0.99 0.729,1.47 0.401,0.77 0.82,1.54 1.26,2.29 0.28,0.509 0.58,1.009 0.891,1.509 0.349,0.571 0.699,1.13 1.069,1.681 0.36,0.55 0.73,1.09 1.1,1.62 l 0.02,0.02 c 0.38,0.55 0.78,1.08 1.181,1.61 0.299,0.399 0.619,0.81 0.929,1.199 0.1,0.12 0.19,0.241 0.29,0.361 h 0.01 c 0.05,0.07 0.111,0.139 0.16,0.21 0.6,0.73 1.21,1.45 1.84,2.14 7.72,8.6 17.89,14.97 29.401,18.02 C -0.68,15.25 -0.68,15.25 -0.68,15.229 -0.66,15.2 -0.649,15.16 -0.64,15.13 -0.319,14.24 1.42,8.89 0,0"
             style="fill:#9975ae;fill-opacity:1;fill-rule:nonzero;stroke:none"
             id="path152" />
        </g>
        <g
           id="g154"
           transform="translate(323.7536,77.2699)">
          <path
             d="m 0,0 c 0.122,-0.201 0.241,-0.402 0.359,-0.604 3.842,5.053 8.439,9.433 13.673,13.026 7.89,5.41 17.058,8.838 26.531,9.922 1.636,4.101 2.766,8.128 3.358,11.972 v 0.003 c 1.277,7.994 -0.03,13.077 -0.513,14.577 C 32.33,45.87 22.411,39.739 14.697,31.146 14.14,30.535 13.561,29.861 12.872,29.022 L 12.41,28.45 C 12.108,28.072 11.792,27.666 11.495,27.271 11.069,26.706 10.688,26.2 10.326,25.676 L 10.274,25.61 C 9.918,25.099 9.561,24.577 9.213,24.046 8.844,23.496 8.497,22.942 8.15,22.378 7.845,21.884 7.549,21.392 7.273,20.89 6.856,20.179 6.448,19.437 6.019,18.609 5.771,18.134 5.533,17.648 5.295,17.153 4.967,16.486 4.66,15.813 4.364,15.131 4.124,14.593 3.896,14.049 3.679,13.505 3.43,12.896 3.191,12.281 2.964,11.667 2.718,10.968 2.5,10.352 2.301,9.736 2.093,9.091 1.894,8.456 1.705,7.802 1.525,7.203 1.367,6.599 1.209,5.985 1.179,5.89 1.164,5.816 1.149,5.748 0.98,5.09 0.841,4.476 0.702,3.86 0.555,3.207 0.426,2.545 0.308,1.883 0.196,1.252 0.094,0.63 0,0 m 0.251,-2.422 -0.38,0.663 c -0.267,0.466 -0.535,0.931 -0.822,1.397 l -0.074,0.121 0.037,0.397 c 0.094,0.636 0.199,1.264 0.311,1.901 0.12,0.678 0.253,1.356 0.405,2.023 0.14,0.625 0.282,1.25 0.443,1.875 0.022,0.104 0.046,0.211 0.078,0.31 0.153,0.596 0.315,1.213 0.497,1.819 0.191,0.659 0.392,1.305 0.604,1.96 0.201,0.624 0.422,1.249 0.643,1.873 l 0.033,0.097 c 0.232,0.625 0.474,1.25 0.726,1.866 0.221,0.552 0.454,1.107 0.696,1.653 0.302,0.694 0.614,1.381 0.948,2.058 0.241,0.501 0.483,0.995 0.736,1.48 0.436,0.842 0.852,1.599 1.271,2.313 0.279,0.505 0.582,1.012 0.897,1.519 0.353,0.575 0.706,1.14 1.08,1.696 0.359,0.548 0.732,1.092 1.104,1.627 l 0.075,0.085 c 0.315,0.469 0.704,0.986 1.092,1.502 0.346,0.46 0.67,0.874 0.984,1.268 l 0.445,0.552 c 0.719,0.877 1.309,1.562 1.876,2.184 7.944,8.851 18.195,15.133 29.641,18.166 l 0.262,0.07 0.366,-0.332 0.005,-0.135 c 0.005,-0.016 0.01,-0.028 0.013,-0.039 0.363,-1.012 2.089,-6.472 0.666,-15.383 -0.617,-4.007 -1.805,-8.203 -3.53,-12.472 L 41.267,21.416 40.97,21.383 C 31.554,20.354 22.435,16.971 14.599,11.598 9.246,7.924 4.572,3.414 0.706,-1.808 Z"
             style="fill:#ffffff;fill-opacity:1;fill-rule:nonzero;stroke:none"
             id="path156" />
        </g>
        <g
           id="g158"
           transform="translate(373.0192,99.4798)">
          <path
             d="m 0,0 c -0.641,-20.479 -11.46,-38.38 -27.57,-48.83 -3.771,-2.44 -7.83,-4.48 -12.111,-6.04 -0.67,11.29 -3.96,21.87 -9.279,31.15 3.88,5.241 8.619,9.82 14.01,13.52 7.729,5.3 16.8,8.8 26.599,9.87 2.13,0.24 4.29,0.36 6.481,0.36 C -1.24,0.03 -0.62,0.021 0,0"
             style="fill:#662383;fill-opacity:1;fill-rule:nonzero;stroke:none"
             id="path160" />
        </g>
        <g
           id="g162"
           transform="translate(324.655,75.724)">
          <path
             d="m 0,0 c 5.327,-9.39 8.4,-19.617 9.14,-30.412 3.96,1.495 7.786,3.43 11.382,5.758 16.367,10.617 26.554,28.504 27.324,47.925 -2.575,0.056 -5.23,-0.055 -7.777,-0.342 C 30.652,21.9 21.533,18.517 13.697,13.144 8.435,9.531 3.827,5.11 0,0 m 8.225,-31.813 -0.04,0.669 C 7.532,-20.146 4.432,-9.74 -1.03,-0.213 l -0.163,0.283 0.195,0.263 c 3.932,5.312 8.685,9.898 14.129,13.635 7.973,5.467 17.25,8.909 26.828,9.955 2.759,0.31 5.635,0.425 8.421,0.333 L 48.879,24.239 48.863,23.74 C 48.24,3.799 37.849,-14.606 21.066,-25.494 c -3.849,-2.491 -7.958,-4.54 -12.212,-6.09 z"
             style="fill:#ffffff;fill-opacity:1;fill-rule:nonzero;stroke:none"
             id="path164" />
        </g>
        <g
           id="g166"
           transform="translate(301.9489,77.1898)">
          <path
             d="m 0,0 c -0.29,-0.47 -0.57,-0.95 -0.84,-1.42 -3.89,5.25 -8.63,9.82 -14.02,13.52 -7.72,5.3 -16.79,8.79 -26.58,9.86 -1.88,4.65 -2.95,8.79 -3.5,12.36 -1.42,8.89 0.32,14.241 0.64,15.13 0.01,0.03 0.02,0.071 0.04,0.1 0,0.02 0,0.02 0.01,0.03 11.51,-3.05 21.67,-9.42 29.39,-18.01 0.7,-0.77 1.37,-1.56 2.03,-2.37 C -6.16,20.98 -1.61,10.96 0,0"
             style="fill:#9975ae;fill-opacity:1;fill-rule:nonzero;stroke:none"
             id="path168" />
        </g>
        <g
           id="g170"
           transform="translate(260.861,99.6136)">
          <path
             d="m 0,0 c 9.483,-1.087 18.644,-4.511 26.511,-9.912 5.242,-3.598 9.842,-7.979 13.682,-13.028 0.123,0.208 0.247,0.416 0.373,0.623 C 38.985,-11.776 34.597,-1.829 27.869,6.461 27.15,7.344 26.492,8.112 25.857,8.81 18.134,17.404 8.215,23.532 -2.854,26.555 -3.325,25.066 -4.638,19.979 -3.358,11.975 -2.767,8.128 -1.637,4.102 0,0 m 40.3,-24.755 -0.454,0.613 c -3.866,5.217 -8.542,9.727 -13.902,13.406 -7.813,5.365 -16.925,8.745 -26.351,9.775 l -0.297,0.033 -0.112,0.277 c -1.726,4.268 -2.913,8.464 -3.531,12.471 -1.423,8.91 0.303,14.37 0.663,15.375 0.003,0.01 0.007,0.021 0.011,0.033 v 0.12 l 0.376,0.361 0.263,-0.069 C 8.398,24.61 18.646,18.331 26.6,9.48 27.244,8.771 27.914,7.99 28.646,7.092 35.524,-1.386 39.998,-11.566 41.583,-22.351 l 0.026,-0.18 -0.095,-0.156 c -0.287,-0.465 -0.566,-0.941 -0.833,-1.407 z"
             style="fill:#ffffff;fill-opacity:1;fill-rule:nonzero;stroke:none"
             id="path172" />
        </g>
        <g
           id="g174"
           transform="translate(301.1091,75.7699)">
          <path
             d="m 0,0 c -5.32,-9.28 -8.61,-19.86 -9.28,-31.16 -4.281,1.57 -8.33,3.6 -12.1,6.04 -16.11,10.45 -26.931,28.35 -27.57,48.83 0.62,0.02 1.24,0.03 1.86,0.03 2.19,0 4.36,-0.12 6.489,-0.36 9.79,-1.07 18.861,-4.56 26.58,-9.86 C -8.63,9.82 -3.891,5.25 0,0"
             style="fill:#662383;fill-opacity:1;fill-rule:nonzero;stroke:none"
             id="path176" />
        </g>
        <g
           id="g178"
           transform="translate(252.6765,98.9945)">
          <path
             d="m 0,0 c 0.77,-19.421 10.957,-37.308 27.324,-47.925 3.57,-2.31 7.392,-4.245 11.372,-5.756 0.739,10.8 3.812,21.029 9.139,30.419 -3.826,5.107 -8.437,9.528 -13.706,13.145 C 26.315,-4.752 17.203,-1.372 7.777,-0.342 5.238,-0.056 2.614,0.061 0,0 m 39.611,-55.086 -0.631,0.232 c -4.276,1.569 -8.38,3.618 -12.2,6.089 C 9.997,-37.877 -0.395,-19.472 -1.018,0.47 l -0.015,0.499 0.499,0.016 c 2.832,0.091 5.675,-0.023 8.422,-0.333 9.588,-1.048 18.858,-4.487 26.807,-9.945 5.451,-3.741 10.207,-8.328 14.138,-13.634 l 0.195,-0.262 -0.163,-0.285 c -5.462,-9.528 -8.561,-19.938 -9.214,-30.94 z"
             style="fill:#ffffff;fill-opacity:1;fill-rule:nonzero;stroke:none"
             id="path180" />
        </g>
        <g
           id="g182"
           transform="translate(338.0788,108.7503)">
          <path
             d="m 0,0 c -0.63,-0.69 -1.24,-1.41 -1.84,-2.141 -0.06,-0.07 -0.11,-0.139 -0.17,-0.21 -0.1,-0.12 -0.19,-0.24 -0.29,-0.36 -0.31,-0.39 -0.63,-0.8 -0.929,-1.199 C -3.63,-4.44 -4.03,-4.971 -4.41,-5.521 L -4.43,-5.54 c -0.37,-0.53 -0.74,-1.07 -1.1,-1.62 -0.37,-0.551 -0.72,-1.111 -1.07,-1.681 -0.31,-0.5 -0.61,-1 -0.89,-1.51 -0.44,-0.75 -0.86,-1.519 -1.26,-2.29 -0.25,-0.479 -0.49,-0.969 -0.729,-1.469 -0.331,-0.67 -0.641,-1.351 -0.941,-2.04 -0.24,-0.54 -0.47,-1.09 -0.69,-1.64 -0.25,-0.61 -0.49,-1.231 -0.72,-1.851 -0.01,-0.03 -0.02,-0.059 -0.03,-0.089 -0.22,-0.621 -0.44,-1.241 -0.64,-1.861 -0.21,-0.649 -0.41,-1.29 -0.6,-1.949 -0.18,-0.601 -0.34,-1.21 -0.5,-1.83 -0.03,-0.091 -0.05,-0.191 -0.07,-0.28 -0.16,-0.621 -0.3,-1.241 -0.44,-1.861 -0.15,-0.66 -0.28,-1.33 -0.4,-2 -0.13,-0.679 -0.23,-1.349 -0.33,-2.029 -0.01,-0.011 -0.01,-0.03 -0.01,-0.04 -2.99,4.96 -6.57,9.519 -10.64,13.6 l -0.02,0.019 v -0.029 c -4.06,-4.071 -7.63,-8.62 -10.62,-13.571 -1.61,10.96 -6.16,20.981 -12.83,29.201 -0.66,0.809 -1.33,1.599 -2.03,2.37 2.24,20.649 11.56,39.17 25.48,53.099 h 0.02 0.011 C -11.56,39.18 -2.24,20.649 0,0"
             style="fill:#9975ae;fill-opacity:1;fill-rule:nonzero;stroke:none"
             id="path184" />
        </g>
        <g
           id="g186"
           transform="translate(312.5866,91.2787)">
          <path
             d="m 0,0 c 0.124,0 0.245,-0.044 0.336,-0.136 3.819,-3.828 7.181,-8.042 10.021,-12.558 0.042,0.249 0.086,0.499 0.134,0.75 0.119,0.671 0.252,1.348 0.404,2.015 0.14,0.625 0.282,1.25 0.443,1.875 0.022,0.104 0.046,0.211 0.078,0.31 0.153,0.597 0.315,1.213 0.497,1.819 0.191,0.659 0.392,1.305 0.604,1.96 0.201,0.624 0.422,1.249 0.643,1.873 10e-4,0.002 0.032,0.095 0.033,0.097 0.232,0.625 0.474,1.25 0.726,1.866 0.221,0.552 0.454,1.108 0.696,1.653 0.302,0.694 0.614,1.381 0.948,2.058 0.241,0.501 0.483,0.995 0.736,1.48 0.436,0.842 0.852,1.599 1.271,2.313 0.279,0.505 0.582,1.012 0.897,1.52 0.353,0.574 0.706,1.139 1.08,1.695 0.359,0.549 0.732,1.093 1.104,1.627 0.022,0.031 0.046,0.059 0.075,0.085 0.315,0.469 0.704,0.986 1.092,1.503 0.346,0.46 0.67,0.874 0.984,1.267 l 0.471,0.585 c 0.631,0.769 1.177,1.406 1.698,1.984 -2.18,19.62 -11.038,38.145 -24.974,52.246 -13.936,-14.1 -22.795,-32.623 -24.974,-52.237 0.6,-0.666 1.222,-1.395 1.897,-2.223 6.594,-8.126 10.977,-17.818 12.726,-28.105 2.832,4.494 6.168,8.682 9.933,12.462 0.053,0.076 0.125,0.138 0.212,0.174 C -0.142,-0.014 -0.07,0 0,0 m 10.642,-14.608 c -0.172,0 -0.336,0.088 -0.429,0.241 -2.859,4.745 -6.295,9.168 -10.216,13.152 -3.908,-3.97 -7.34,-8.386 -10.207,-13.132 -0.109,-0.18 -0.315,-0.272 -0.526,-0.232 -0.207,0.042 -0.366,0.209 -0.397,0.418 -1.557,10.606 -5.958,20.62 -12.723,28.957 -0.719,0.883 -1.377,1.651 -2.012,2.349 -0.096,0.106 -0.143,0.248 -0.127,0.39 2.179,20.08 11.278,39.045 25.624,53.4 0.187,0.187 0.549,0.187 0.736,0 C 14.71,56.579 23.811,37.611 25.989,17.525 26.005,17.383 25.958,17.24 25.861,17.135 25.307,16.526 24.728,15.853 24.039,15.014 L 23.577,14.441 C 23.275,14.063 22.959,13.657 22.662,13.262 22.236,12.697 21.855,12.191 21.493,11.667 21.483,11.652 21.467,11.633 21.45,11.614 21.091,11.098 20.73,10.572 20.38,10.037 20.011,9.487 19.664,8.934 19.317,8.369 19.012,7.875 18.716,7.383 18.44,6.881 18.023,6.17 17.615,5.428 17.186,4.602 16.938,4.125 16.7,3.64 16.462,3.145 16.134,2.478 15.827,1.805 15.531,1.122 15.291,0.584 15.063,0.04 14.846,-0.504 c -0.249,-0.609 -0.488,-1.224 -0.715,-1.838 -0.246,-0.699 -0.464,-1.315 -0.663,-1.93 -0.208,-0.646 -0.407,-1.281 -0.596,-1.935 -0.18,-0.599 -0.338,-1.203 -0.496,-1.816 -0.03,-0.096 -0.045,-0.169 -0.06,-0.238 -0.169,-0.658 -0.308,-1.272 -0.447,-1.887 -0.147,-0.654 -0.276,-1.316 -0.394,-1.978 -0.131,-0.68 -0.23,-1.343 -0.328,-2.015 -0.003,-0.027 -0.01,-0.053 -0.018,-0.079 -0.04,-0.176 -0.174,-0.32 -0.354,-0.37 -0.045,-0.013 -0.089,-0.018 -0.133,-0.018"
             style="fill:#ffffff;fill-opacity:1;fill-rule:nonzero;stroke:none"
             id="path188" />
        </g>
        <g
           id="g190"
           transform="translate(373.0485,101.3997)">
          <path
             d="m 0,0 c 0,-0.64 -0.01,-1.28 -0.029,-1.92 -0.62,0.021 -1.241,0.03 -1.87,0.03 -2.191,0 -4.351,-0.12 -6.481,-0.36 1.88,4.65 2.95,8.79 3.5,12.36 C -3.46,19 -5.199,24.351 -5.52,25.24 -3.27,20.38 -1.66,15.17 -0.779,9.7 -0.26,6.54 0,3.3 0,0"
             style="fill:#662383;fill-opacity:1;fill-rule:nonzero;stroke:none"
             id="path192" />
        </g>
        <g
           id="g194"
           transform="translate(369.0505,121.6097)">
          <path
             d="m 0,0 c 0.254,-2.56 0.281,-5.987 -0.388,-10.179 -0.58,-3.762 -1.664,-7.695 -3.224,-11.697 2.334,0.229 4.753,0.315 7.093,0.26 0.012,0.469 0.017,0.937 0.017,1.406 0,3.267 -0.261,6.503 -0.773,9.619 C 2.142,-6.971 1.229,-3.425 0,0 m -5.16,-23.051 0.314,0.779 c 1.698,4.197 2.865,8.318 3.47,12.249 1.386,8.673 -0.27,13.92 -0.616,14.884 l 0.925,0.379 c 2.296,-4.961 3.904,-10.233 4.778,-15.671 0.522,-3.168 0.787,-6.459 0.787,-9.779 0,-0.645 -0.01,-1.291 -0.03,-1.936 l -0.017,-0.5 -0.5,0.017 c -2.736,0.087 -5.565,-0.022 -8.277,-0.328 z"
             style="fill:#ffffff;fill-opacity:1;fill-rule:nonzero;stroke:none"
             id="path196" />
        </g>
        <g
           id="g198"
           transform="translate(260.5085,99.1497)">
          <path
             d="m 0,0 c -2.13,0.24 -4.3,0.36 -6.489,0.36 -0.62,0 -1.24,-0.009 -1.861,-0.03 -0.02,0.64 -0.03,1.28 -0.03,1.92 0,3.3 0.26,6.55 0.78,9.71 0.88,5.46 2.491,10.67 4.741,15.53 C -3.18,26.601 -4.92,21.25 -3.5,12.36 -2.949,8.79 -1.88,4.65 0,0"
             style="fill:#662383;fill-opacity:1;fill-rule:nonzero;stroke:none"
             id="path200" />
        </g>
        <g
           id="g202"
           transform="translate(254.0182,100.0101)">
          <path
             d="M 0,0 C 1.921,0 3.842,-0.093 5.721,-0.276 4.16,3.726 3.076,7.658 2.496,11.424 1.827,15.614 1.854,19.041 2.108,21.601 0.879,18.178 -0.033,14.636 -0.616,11.021 -1.129,7.902 -1.39,4.662 -1.39,1.39 -1.39,0.921 -1.385,0.452 -1.373,-0.017 -0.916,-0.006 -0.458,0 0,0 m 7.269,-1.451 -0.834,0.094 c -2.7,0.303 -5.495,0.414 -8.278,0.328 l -0.5,-0.017 -0.016,0.5 C -2.38,0.099 -2.39,0.744 -2.39,1.39 c 0,3.327 0.265,6.621 0.787,9.791 0.875,5.431 2.484,10.7 4.779,15.659 L 4.101,26.461 C 3.755,25.497 2.099,20.25 3.484,11.579 4.09,7.646 5.257,3.524 6.954,-0.673 Z"
             style="fill:#ffffff;fill-opacity:1;fill-rule:nonzero;stroke:none"
             id="path204" />
        </g>
        <g
           id="g206"
           transform="translate(318.7067,103.8499)">
          <path
             d="m 0,0 c 0,1.721 -2.734,3.116 -6.107,3.116 -3.374,0 -6.109,-1.395 -6.109,-3.116 0,0 2.64,-10.062 2.389,-20.029 h 7.439 C -2.64,-10.062 0,0 0,0"
             style="fill:#f9b233;fill-opacity:1;fill-rule:nonzero;stroke:none"
             id="path208" />
        </g>
        <g
           id="g210"
           transform="translate(312.569,161.8597)">
          <path
             d="m 0,0 c -13.92,-13.93 -23.24,-32.45 -25.48,-53.1 -7.72,8.59 -17.88,14.96 -29.39,18.01 v 0.01 C -45.28,-14.37 -24.32,-0.01 0,0"
             style="fill:#ededed;fill-opacity:1;fill-rule:nonzero;stroke:none"
             id="path212" />
        </g>
        <g
           id="g214"
           transform="translate(258.4001,127.098)">
          <path
             d="M 0,0 C 10.851,-2.988 20.607,-8.914 28.317,-17.191 30.654,2.083 39.365,20.267 52.962,34.249 30.352,33.78 9.719,20.46 0,0 m 29.064,-19.505 -0.748,0.833 c -7.823,8.705 -17.901,14.881 -29.145,17.86 l -0.372,0.099 0.046,0.605 c 9.945,21.476 31.661,35.36 55.324,35.37 l 1.207,10e-4 -0.854,-0.855 C 40.338,20.214 31.34,1.463 29.186,-18.392 Z"
             style="fill:#ffffff;fill-opacity:1;fill-rule:nonzero;stroke:none"
             id="path216" />
        </g>
        <g
           id="g218"
           transform="translate(367.4792,126.7796)">
          <path
             d="M 0,0 V -0.01 C -11.511,-3.06 -21.681,-9.43 -29.4,-18.029 -31.641,2.62 -40.96,21.15 -54.88,35.08 -30.561,35.08 -9.591,20.71 0,0"
             style="fill:#ededed;fill-opacity:1;fill-rule:nonzero;stroke:none"
             id="path220" />
        </g>
        <g
           id="g222"
           transform="translate(313.8054,161.348)">
          <path
             d="m 0,0 c 13.596,-13.983 22.308,-32.171 24.645,-51.45 7.704,8.28 17.464,14.209 28.327,17.2 C 43.249,-13.781 22.61,-0.46 0,0 m 23.897,-53.766 -0.121,1.115 c -2.154,19.86 -11.152,38.615 -25.337,52.809 l -0.852,0.854 h 1.206 c 23.664,0 45.384,-13.884 55.334,-35.37 l 0.046,-0.22 v -0.385 l -0.372,-0.099 c -11.257,-2.982 -21.338,-9.162 -29.155,-17.87 z"
             style="fill:#ffffff;fill-opacity:1;fill-rule:nonzero;stroke:none"
             id="path224" />
        </g>
        <g
           id="g226"
           transform="translate(333.3386,44.6097)">
          <path
             d="m 0,0 c -1.689,-0.62 -3.42,-1.17 -5.18,-1.64 -3.549,-0.94 -7.23,-1.57 -11.009,-1.85 -1.5,-0.11 -3.031,-0.17 -4.561,-0.17 h -0.02 c -1.53,0 -3.049,0.06 -4.549,0.17 -3.771,0.28 -7.451,0.91 -11,1.85 -1.761,0.47 -3.491,1.02 -5.191,1.64 0.67,11.3 3.96,21.88 9.281,31.16 0.269,0.47 0.549,0.95 0.839,1.42 2.991,4.95 6.56,9.5 10.62,13.57 l 0.02,0.01 c 4.07,-4.08 7.65,-8.639 10.641,-13.599 0.29,-0.471 0.559,-0.941 0.83,-1.411 C -3.96,21.87 -0.67,11.29 0,0"
             style="fill:#662383;fill-opacity:1;fill-rule:nonzero;stroke:none"
             id="path228" />
        </g>
        <g
           id="g230"
           transform="translate(292.3513,44.9525)">
          <path
             d="m 0,0 c 1.598,-0.572 3.209,-1.076 4.796,-1.499 3.566,-0.945 7.237,-1.563 10.908,-1.835 3.093,-0.226 6.014,-0.223 9.057,0 3.676,0.272 7.35,0.89 10.919,1.835 1.596,0.426 3.205,0.93 4.785,1.498 -0.699,10.86 -3.791,21.141 -9.192,30.56 -0.266,0.465 -0.535,0.93 -0.822,1.396 -2.862,4.749 -6.298,9.172 -10.219,13.156 C 16.324,41.142 12.893,36.726 10.025,31.979 9.736,31.509 9.458,31.033 9.19,30.567 3.791,21.148 0.699,10.865 0,0 m 20.237,-4.503 c -1.505,0 -3.048,0.058 -4.606,0.171 -3.734,0.278 -7.465,0.905 -11.092,1.866 -1.732,0.463 -3.493,1.019 -5.232,1.654 l -0.351,0.127 0.023,0.372 c 0.661,11.158 3.805,21.715 9.344,31.378 0.274,0.476 0.556,0.96 0.849,1.435 2.988,4.948 6.587,9.546 10.692,13.66 l 0.13,0.095 0.322,0.161 0.275,-0.246 c 4.124,-4.133 7.728,-8.74 10.715,-13.694 0.29,-0.471 0.562,-0.945 0.835,-1.42 5.54,-9.662 8.683,-20.216 9.345,-31.369 l 0.023,-0.372 -0.35,-0.127 C 39.438,-1.443 37.681,-2 35.937,-2.466 32.308,-3.427 28.572,-4.055 24.834,-4.332 23.274,-4.445 21.729,-4.503 20.237,-4.503"
             style="fill:#ffffff;fill-opacity:1;fill-rule:nonzero;stroke:none"
             id="path232" />
        </g>
      </g>
    </g>
    <text
       transform="rotate(21.049385)"
       style="font-variant:normal;font-weight:normal;font-stretch:normal;font-size:5.29167px;font-family:'Didact Gothic';-inkscape-font-specification:DidactGothic-Regular;writing-mode:lr-tb;fill:#202020;fill-opacity:1;fill-rule:nonzero;stroke:none;stroke-width:0.352777"
       id="text236"
       x="136.20558"
       y="58.369267"
       inkscape:export-xdpi="96"
       inkscape:export-ydpi="96"><tspan
         x="136.20558"
         y="58.369267"
         id="tspan234"
         style="stroke-width:0.352777">a</tspan></text>
    <text
       transform="rotate(25.47425)"
       style="font-variant:normal;font-weight:normal;font-stretch:normal;font-size:5.29167px;font-family:'Didact Gothic';-inkscape-font-specification:DidactGothic-Regular;writing-mode:lr-tb;fill:#202020;fill-opacity:1;fill-rule:nonzero;stroke:none;stroke-width:0.352777"
       id="text240"
       x="143.05452"
       y="47.467648"
       inkscape:export-xdpi="96"
       inkscape:export-ydpi="96"><tspan
         x="143.05452"
         y="47.467648"
         id="tspan238"
         style="stroke-width:0.352777">k</tspan></text>
    <text
       transform="rotate(32.014607)"
       style="font-variant:normal;font-weight:normal;font-stretch:normal;font-size:5.29169px;font-family:'Didact Gothic';-inkscape-font-specification:DidactGothic-Regular;writing-mode:lr-tb;fill:#202020;fill-opacity:1;fill-rule:nonzero;stroke:none;stroke-width:0.352777"
       id="text244"
       x="149.92203"
       y="30.680401"
       inkscape:export-xdpi="96"
       inkscape:export-ydpi="96"><tspan
         x="149.92203"
         y="30.680401"
         id="tspan242"
         style="stroke-width:0.352777">s</tspan></text>
    <text
       transform="rotate(39.916099)"
       style="font-variant:normal;font-weight:normal;font-stretch:normal;font-size:5.29167px;font-family:'Didact Gothic';-inkscape-font-specification:DidactGothic-Regular;writing-mode:lr-tb;fill:#202020;fill-opacity:1;fill-rule:nonzero;stroke:none;stroke-width:0.352777"
       id="text248"
       x="154.976"
       y="9.4973726"
       inkscape:export-xdpi="96"
       inkscape:export-ydpi="96"><tspan
         x="154.976"
         y="9.4973726"
         id="tspan246"
         style="stroke-width:0.352777">a</tspan></text>
    <text
       transform="rotate(47.040984)"
       style="font-variant:normal;font-weight:normal;font-stretch:normal;font-size:5.29169px;font-family:'Didact Gothic';-inkscape-font-specification:DidactGothic-Regular;writing-mode:lr-tb;fill:#202020;fill-opacity:1;fill-rule:nonzero;stroke:none;stroke-width:0.352777"
       id="text252"
       x="157.79773"
       y="-10.155594"
       inkscape:export-xdpi="96"
       inkscape:export-ydpi="96"><tspan
         x="157.79773"
         y="-10.155594"
         id="tspan250"
         style="stroke-width:0.352777">n</tspan></text>
    <text
       transform="rotate(51.843139)"
       style="font-variant:normal;font-weight:normal;font-stretch:normal;font-size:5.29169px;font-family:'Didact Gothic';-inkscape-font-specification:DidactGothic-Regular;writing-mode:lr-tb;fill:#202020;fill-opacity:1;fill-rule:nonzero;stroke:none;stroke-width:0.352777"
       id="text256"
       x="159.14555"
       y="-23.527473"
       inkscape:export-xdpi="96"
       inkscape:export-ydpi="96"><tspan
         x="159.14555"
         y="-23.527473"
         id="tspan254"
         style="stroke-width:0.352777">.</tspan></text>
    <text
       transform="rotate(56.822262)"
       style="font-variant:normal;font-weight:normal;font-stretch:normal;font-size:5.29169px;font-family:'Didact Gothic';-inkscape-font-specification:DidactGothic-Regular;writing-mode:lr-tb;fill:#202020;fill-opacity:1;fill-rule:nonzero;stroke:none;stroke-width:0.352777"
       id="text260"
       x="157.48956"
       y="-37.382416"
       inkscape:export-xdpi="96"
       inkscape:export-ydpi="96"><tspan
         x="157.48956"
         y="-37.382416"
         id="tspan258"
         style="stroke-width:0.352777">d</tspan></text>
    <text
       transform="rotate(63.928629)"
       style="font-variant:normal;font-weight:normal;font-stretch:normal;font-size:5.29169px;font-family:'Didact Gothic';-inkscape-font-specification:DidactGothic-Regular;writing-mode:lr-tb;fill:#202020;fill-opacity:1;fill-rule:nonzero;stroke:none;stroke-width:0.352777"
       id="text264"
       x="154.49423"
       y="-56.933281"
       inkscape:export-xdpi="96"
       inkscape:export-ydpi="96"><tspan
         x="154.49423"
         y="-56.933281"
         id="tspan262"
         style="stroke-width:0.352777">e</tspan></text>
    <text
       transform="rotate(70.040749)"
       style="font-variant:normal;font-weight:normal;font-stretch:normal;font-size:5.29169px;font-family:'Didact Gothic';-inkscape-font-specification:DidactGothic-Regular;writing-mode:lr-tb;fill:#202020;fill-opacity:1;fill-rule:nonzero;stroke:none;stroke-width:0.352777"
       id="text268"
       x="150.11143"
       y="-73.334129"
       inkscape:export-xdpi="96"
       inkscape:export-ydpi="96"><tspan
         x="150.11143"
         y="-73.334129"
         id="tspan266"
         style="stroke-width:0.352777">v</tspan></text>
    <g
       id="g270"
       transform="matrix(0.35277777,0,0,-0.35277777,-10.750401,160.65332)"
       inkscape:export-xdpi="96"
       inkscape:export-ydpi="96">
      <g
         id="g272"
         clip-path="url(#clipPath276)">
        <g
           id="g278"
           transform="translate(312.5886,33.7962)">
          <path
             d="m 0,0 c -37.279,0 -67.608,30.329 -67.608,67.609 0,37.28 30.329,67.609 67.608,67.609 5.793,0 11.547,-0.734 17.101,-2.181 l -0.127,-0.484 c -5.512,1.436 -11.223,2.165 -16.974,2.165 -37.004,0 -67.108,-30.105 -67.108,-67.109 C -67.108,30.605 -37.004,0.5 0,0.5 c 37.004,0 67.109,30.105 67.109,67.109 0,6.126 -0.825,12.197 -2.453,18.04 l 0.483,0.135 c 1.639,-5.888 2.47,-12.003 2.47,-18.175 C 67.609,30.329 37.28,0 0,0"
             style="fill:#202020;fill-opacity:1;fill-rule:nonzero;stroke:none"
             id="path280" />
        </g>
      </g>
    </g>
  </g>
</svg>
